<?xml version="1.0" encoding="UTF-8"?><svg xmlns="http://www.w3.org/2000/svg" xmlns:xlink="http://www.w3.org/1999/xlink" contentScriptType="text/ecmascript" fill="#000000" width="441.6" zoomAndPan="magnify" contentStyleType="text/css" viewBox="0.0 -0.2 441.6 500.2" height="500.2" preserveAspectRatio="xMidYMid meet" version="1"><defs><clipPath id="a"><path d="M 0 0 L 441.589844 0 L 441.589844 500 L 0 500 Z M 0 0"/></clipPath></defs><g><g id="change1_1" clip-path="url(#a)"><path fill="#6cb2c4" d="M 0 500 C 0 500 126.355469 -0.6875 251.039062 0 C 352.359375 0.558594 413.851562 368.59375 441.585938 500 L 0 500"/></g><g id="change2_1"><path fill="#e8fdff" d="M 168.363281 114.203125 C 168.363281 114.203125 150.183594 170.613281 177.214844 172.476562 C 210.101562 174.746094 234.066406 107.660156 234.066406 107.660156 C 234.066406 107.660156 223.652344 150.511719 243.496094 147.984375 C 262.496094 145.5625 271.132812 106.96875 271.132812 106.96875 C 271.132812 106.96875 288.085938 174.71875 317.3125 172.5625 C 336.296875 171.160156 327.339844 118.859375 327.339844 118.859375 C 327.339844 118.859375 344.902344 159.683594 356.070312 151.175781 C 357.359375 150.195312 356.847656 147.914062 357.003906 145.945312 C 328.246094 63.085938 293.070312 0.234375 251.039062 0 C 208.984375 -0.230469 166.742188 56.578125 129.21875 131.976562 C 116.96875 164.214844 149.785156 142.753906 168.363281 114.203125"/></g><g id="change3_1"><path fill="#def0ec" d="M 131.347656 228.574219 C 131.113281 228.574219 130.875 228.546875 130.636719 228.488281 C 129.097656 228.117188 128.167969 226.632812 128.5625 225.175781 L 133.695312 206.121094 C 134.089844 204.660156 135.652344 203.78125 137.195312 204.152344 C 138.730469 204.527344 139.660156 206.011719 139.269531 207.46875 L 134.132812 226.523438 C 133.800781 227.753906 132.632812 228.574219 131.347656 228.574219"/></g><g id="change3_2"><path fill="#def0ec" d="M 194.074219 223.515625 C 193.917969 223.515625 193.757812 223.503906 193.597656 223.476562 C 192.03125 223.226562 190.972656 221.824219 191.234375 220.339844 L 195.015625 198.925781 C 195.277344 197.441406 196.742188 196.4375 198.324219 196.6875 C 199.890625 196.933594 200.949219 198.339844 200.6875 199.824219 L 196.90625 221.238281 C 196.671875 222.570312 195.453125 223.515625 194.074219 223.515625"/></g><g id="change3_3"><path fill="#def0ec" d="M 243.675781 248.996094 C 243.636719 248.996094 243.601562 248.996094 243.566406 248.992188 C 241.976562 248.9375 240.742188 247.675781 240.796875 246.171875 L 241.496094 228.339844 C 241.558594 226.835938 242.964844 225.6875 244.476562 225.71875 C 246.066406 225.773438 247.304688 227.039062 247.242188 228.542969 L 246.546875 246.371094 C 246.488281 247.839844 245.214844 248.996094 243.675781 248.996094"/></g><g id="change3_4"><path fill="#def0ec" d="M 302.300781 223.113281 C 300.890625 223.113281 299.65625 222.128906 299.457031 220.765625 L 296.4375 200.277344 C 296.21875 198.789062 297.316406 197.410156 298.886719 197.203125 C 300.476562 196.984375 301.914062 198.03125 302.132812 199.523438 L 305.152344 220.011719 C 305.371094 221.503906 304.273438 222.878906 302.699219 223.085938 C 302.566406 223.105469 302.433594 223.113281 302.300781 223.113281"/></g><g id="change3_5"><path fill="#def0ec" d="M 358 240.742188 C 356.628906 240.742188 355.414062 239.808594 355.171875 238.484375 L 351.335938 217.683594 C 351.0625 216.199219 352.109375 214.789062 353.675781 214.53125 C 355.234375 214.273438 356.730469 215.265625 357.003906 216.746094 L 360.835938 237.546875 C 361.109375 239.03125 360.0625 240.441406 358.496094 240.699219 C 358.332031 240.726562 358.164062 240.742188 358 240.742188"/></g><g id="change3_6"><path fill="#def0ec" d="M 372.621094 347.554688 C 371.3125 347.554688 370.128906 346.703125 369.820312 345.441406 L 364.59375 323.980469 C 364.238281 322.515625 365.199219 321.050781 366.746094 320.714844 C 368.304688 320.375 369.839844 321.289062 370.199219 322.753906 L 375.425781 344.21875 C 375.78125 345.683594 374.816406 347.144531 373.269531 347.484375 C 373.050781 347.53125 372.835938 347.554688 372.621094 347.554688"/></g><g id="change3_7"><path fill="#def0ec" d="M 332.128906 288.019531 C 330.75 288.019531 329.53125 287.078125 329.296875 285.75 L 325.113281 262.304688 C 324.847656 260.824219 325.90625 259.414062 327.46875 259.164062 C 329.046875 258.917969 330.519531 259.914062 330.785156 261.398438 L 334.96875 284.84375 C 335.230469 286.324219 334.175781 287.730469 332.609375 287.980469 C 332.449219 288.007812 332.285156 288.019531 332.128906 288.019531"/></g><g id="change3_8"><path fill="#def0ec" d="M 287.695312 319.421875 C 286.21875 319.421875 284.964844 318.347656 284.835938 316.929688 L 283.089844 297.445312 C 282.957031 295.949219 284.132812 294.628906 285.714844 294.503906 C 287.257812 294.355469 288.6875 295.484375 288.824219 296.988281 L 290.566406 316.46875 C 290.699219 317.96875 289.527344 319.285156 287.945312 319.410156 C 287.859375 319.417969 287.777344 319.421875 287.695312 319.421875"/></g><g id="change3_9"><path fill="#def0ec" d="M 224.800781 334.011719 C 224.800781 334.011719 224.796875 334.011719 224.796875 334.011719 C 223.207031 334.007812 221.925781 332.796875 221.925781 331.289062 L 221.964844 308.507812 C 221.964844 307.003906 223.253906 305.785156 224.839844 305.785156 C 224.839844 305.785156 224.839844 305.785156 224.84375 305.785156 C 226.429688 305.789062 227.71875 307.011719 227.714844 308.515625 L 227.679688 331.28125 C 227.675781 332.785156 226.386719 334.011719 224.800781 334.011719"/></g><g id="change3_10"><path fill="#def0ec" d="M 164.269531 307.753906 C 164.199219 307.753906 164.132812 307.753906 164.058594 307.746094 C 162.476562 307.640625 161.285156 306.335938 161.398438 304.835938 L 162.792969 286.347656 C 162.90625 284.847656 164.3125 283.714844 165.867188 283.824219 C 167.449219 283.929688 168.640625 285.234375 168.53125 286.734375 L 167.136719 305.226562 C 167.027344 306.660156 165.765625 307.753906 164.269531 307.753906"/></g><g id="change3_11"><path fill="#def0ec" d="M 99.246094 308.691406 C 99.019531 308.691406 98.792969 308.664062 98.566406 308.613281 C 97.019531 308.257812 96.074219 306.785156 96.449219 305.324219 L 102.371094 282.210938 C 102.746094 280.746094 104.304688 279.851562 105.847656 280.203125 C 107.390625 280.558594 108.339844 282.035156 107.964844 283.496094 L 102.039062 306.609375 C 101.71875 307.855469 100.539062 308.691406 99.246094 308.691406"/></g><g id="change3_12"><path fill="#def0ec" d="M 79.035156 401.109375 C 78.832031 401.109375 78.625 401.085938 78.417969 401.042969 C 76.867188 400.722656 75.886719 399.269531 76.226562 397.796875 L 82.5 370.722656 C 82.839844 369.253906 84.375 368.324219 85.921875 368.644531 C 87.476562 368.96875 88.457031 370.421875 88.117188 371.890625 L 81.84375 398.96875 C 81.546875 400.238281 80.355469 401.109375 79.035156 401.109375"/></g><g id="change3_13"><path fill="#def0ec" d="M 158.453125 417.632812 C 158.347656 417.632812 158.238281 417.625 158.132812 417.613281 C 156.554688 417.445312 155.414062 416.097656 155.59375 414.605469 L 158.40625 390.832031 C 158.582031 389.339844 159.992188 388.257812 161.582031 388.429688 C 163.160156 388.597656 164.296875 389.945312 164.121094 391.441406 L 161.308594 415.210938 C 161.144531 416.601562 159.898438 417.632812 158.453125 417.632812"/></g><g id="change3_14"><path fill="#def0ec" d="M 246.203125 398.082031 C 246.175781 398.082031 246.148438 398.082031 246.117188 398.082031 C 244.53125 398.035156 243.28125 396.78125 243.328125 395.277344 L 244.027344 372.828125 C 244.074219 371.324219 245.464844 370.128906 246.984375 370.183594 C 248.574219 370.226562 249.824219 371.484375 249.777344 372.988281 L 249.078125 395.4375 C 249.03125 396.914062 247.753906 398.082031 246.203125 398.082031"/></g><g id="change3_15"><path fill="#def0ec" d="M 330.335938 399.820312 C 328.867188 399.820312 327.617188 398.761719 327.476562 397.351562 L 325.386719 376.550781 C 325.234375 375.054688 326.394531 373.722656 327.976562 373.582031 C 329.570312 373.425781 330.960938 374.535156 331.109375 376.035156 L 333.203125 396.835938 C 333.351562 398.335938 332.191406 399.664062 330.609375 399.808594 C 330.519531 399.816406 330.425781 399.820312 330.335938 399.820312"/></g><g id="change3_16"><path fill="#def0ec" d="M 109.46875 455.742188 C 109.28125 455.742188 109.097656 455.726562 108.910156 455.691406 C 107.351562 455.40625 106.335938 453.972656 106.640625 452.496094 L 110.859375 432.03125 C 111.164062 430.554688 112.695312 429.59375 114.230469 429.878906 C 115.789062 430.167969 116.808594 431.597656 116.503906 433.074219 L 112.285156 453.539062 C 112.015625 454.839844 110.8125 455.742188 109.46875 455.742188"/></g><g id="change3_17"><path fill="#def0ec" d="M 193.480469 453.136719 C 193.386719 453.136719 193.289062 453.128906 193.191406 453.121094 C 191.613281 452.972656 190.457031 451.636719 190.617188 450.140625 L 192.710938 430.328125 C 192.867188 428.832031 194.253906 427.742188 195.855469 427.890625 C 197.4375 428.039062 198.589844 429.371094 198.429688 430.867188 L 196.339844 450.679688 C 196.191406 452.085938 194.941406 453.136719 193.480469 453.136719"/></g><g id="change3_18"><path fill="#def0ec" d="M 308.984375 455.085938 C 307.511719 455.085938 306.257812 454.015625 306.125 452.601562 L 304.382812 433.777344 C 304.242188 432.28125 305.414062 430.957031 306.996094 430.828125 C 308.609375 430.695312 309.972656 431.804688 310.109375 433.304688 L 311.855469 452.121094 C 311.992188 453.621094 310.824219 454.945312 309.242188 455.074219 C 309.15625 455.082031 309.070312 455.085938 308.984375 455.085938"/></g></g></svg>