<?xml version="1.0" encoding="UTF-8"?><svg xmlns="http://www.w3.org/2000/svg" xmlns:xlink="http://www.w3.org/1999/xlink" contentScriptType="text/ecmascript" fill="#000000" width="470.5" zoomAndPan="magnify" contentStyleType="text/css" viewBox="-0.3 -0.3 470.5 201.9" height="201.9" data-name="Layer 1" preserveAspectRatio="xMidYMid meet" version="1"><g id="change1_1"><path fill="#74a050" d="M469.47,40.39v0H457.33V28.1h-.18v-.05H443.66V14.44h-.18v0H430V.77h-.18V.72h-390V14.39H27.53V27.64h-.32v.41H13.84V40.34H.16v121.6H.34v0h13.5V175.6H14v.05h13.5V187.9h.18v0H39.84v13.62H40v0H430V188h-.15v0H430v0h13.69v-12.3h13.67V162h12.32V40.39ZM443.23,41V28.1h.54V41ZM14,161.62H27.21v.32H14ZM436,157h19.78v.43H436.39v16.81H436Z"/></g><g id="change2_1"><path fill="#74a050" d="M458 39.78L458 28 457.84 28 457.84 27.46 444.15 27.46 444.15 28 443.72 28 443.72 27.46 444.15 27.46 444.15 13.75 430.45 13.75 430.45 14 430.29 14 430.29 13.75 430.45 13.75 430.45 0.05 416.74 0.05 403.04 0.05 390.71 0.05 389.33 0.05 377.01 0.05 363.3 0.05 349.6 0.05 335.89 0.05 323.57 0.05 322.19 0.05 309.86 0.05 296.16 0.05 282.45 0.05 268.75 0.05 256.42 0.05 255.06 0.05 242.72 0.05 229.01 0.05 215.31 0.05 201.62 0.05 189.28 0.05 187.91 0.05 175.57 0.05 161.87 0.05 148.18 0.05 134.47 0.05 120.77 0.05 108.43 0.05 107.06 0.05 94.73 0.05 81.03 0.05 67.33 0.05 53.62 0.05 39.92 0.05 39.92 13.75 27.59 13.75 27.59 27.04 27.41 27.04 27.41 26.99 27.09 26.99 27.09 27.41 27.27 27.41 27.27 27.46 13.89 27.46 13.89 39.78 0.18 39.78 0.18 53.49 0.18 67.19 0.18 80.9 0.18 94.6 0.18 106.93 0.18 108.29 0.18 120.63 0.18 134.34 0.18 148.04 0.18 161.73 13.89 161.73 13.89 161.37 14 161.37 14 161.73 13.89 161.73 13.89 175.44 27.59 175.44 27.59 187.78 39.92 187.78 39.92 201.48 53.62 201.48 67.33 201.48 81.03 201.48 94.73 201.48 107.06 201.48 108.43 201.48 120.77 201.48 134.47 201.48 148.18 201.48 161.87 201.48 175.57 201.48 187.91 201.48 189.28 201.48 201.62 201.48 215.31 201.48 229.01 201.48 242.72 201.48 255.06 201.48 256.42 201.48 268.75 201.48 282.45 201.48 296.16 201.48 309.86 201.48 322.19 201.48 323.57 201.48 335.89 201.48 349.6 201.48 363.3 201.48 377.01 201.48 389.33 201.48 390.71 201.48 403.04 201.48 416.74 201.48 430.45 201.48 430.45 188 438 188 438 187.78 444.15 187.78 444.15 175.44 457.84 175.44 457.84 161.73 470.18 161.73 470.18 148.04 470.18 134.34 470.18 120.63 470.18 108.29 470.18 106.93 470.18 94.6 470.18 80.9 470.18 67.19 470.18 53.49 470.18 39.78 458 39.78z"/></g><g id="change3_1"><path fill="#ffffff" d="M94.26 134.46L94.26 147.89 107.69 147.89 107.69 134.46 107.69 121.03 107.69 107.59 94.26 107.59 94.26 121.03 94.26 134.46z"/></g><g id="change3_2"><path fill="#ffffff" d="M161.43 40.42L148 40.42 134.56 40.42 121.13 40.42 121.13 53.85 134.56 53.85 148 53.85 148 67.29 148 80.72 148 94.15 148 107.59 148 121.03 148 134.46 148 147.89 148 161.32 161.43 161.32 161.43 147.89 161.43 134.46 161.43 121.03 161.43 107.59 161.43 94.15 161.43 80.72 161.43 67.29 161.43 53.85 174.86 53.85 188.31 53.85 188.31 40.42 174.86 40.42 161.43 40.42z"/></g><g id="change3_3"><path fill="#ffffff" d="M80.83 40.42L67.39 40.42 53.96 40.42 53.96 53.85 67.39 53.85 80.83 53.85 94.26 53.85 107.69 53.85 107.69 40.42 94.26 40.42 80.83 40.42z"/></g><g id="change3_4"><path fill="#ffffff" d="M67.39 147.89L53.96 147.89 40.52 147.89 40.52 161.32 53.96 161.32 67.39 161.32 80.83 161.32 94.26 161.32 94.26 147.89 80.83 147.89 67.39 147.89z"/></g><g id="change3_5"><path fill="#ffffff" d="M67.39 107.59L80.83 107.59 94.26 107.59 94.26 94.15 80.83 94.15 67.39 94.15 53.96 94.15 53.96 107.59 67.39 107.59z"/></g><g id="change3_6"><path fill="#ffffff" d="M40.52 67.29L40.52 80.72 40.52 94.15 53.96 94.15 53.96 80.72 53.96 67.29 53.96 53.85 40.52 53.85 40.52 67.29z"/></g><g id="change3_7"><path fill="#ffffff" d="M336.07 67.29L336.07 80.72 336.07 94.15 349.5 94.15 349.5 80.72 349.5 67.29 349.5 53.85 336.07 53.85 336.07 67.29z"/></g><g id="change3_8"><path fill="#ffffff" d="M309.19 94.15L295.77 94.15 295.77 80.72 295.77 67.29 295.77 53.85 309.19 53.85 322.64 53.85 336.07 53.85 336.07 40.42 322.64 40.42 309.19 40.42 295.77 40.42 282.33 40.42 282.33 53.85 282.33 67.29 282.33 80.72 282.33 94.15 282.33 107.59 282.33 121.03 282.33 134.46 282.33 147.89 282.33 161.32 295.77 161.32 295.77 147.89 295.77 134.46 295.77 121.03 295.77 107.59 309.19 107.59 322.64 107.59 336.07 107.59 336.07 94.15 322.64 94.15 309.19 94.15z"/></g><g id="change3_9"><path fill="#ffffff" d="M416.67 40.42L403.24 40.42 389.82 40.42 376.37 40.42 362.94 40.42 362.94 53.85 376.37 53.85 389.82 53.85 389.82 67.29 389.82 80.72 389.82 94.15 389.82 107.59 389.82 121.03 389.82 134.46 389.82 147.89 389.82 161.32 403.24 161.32 403.24 147.89 403.24 134.46 403.24 121.03 403.24 107.59 403.24 94.15 403.24 80.72 403.24 67.29 403.24 53.85 416.67 53.85 430.11 53.85 430.11 40.42 416.67 40.42z"/></g><g id="change3_10"><path fill="#ffffff" d="M255.47 67.29L255.47 80.72 255.47 94.15 242.03 94.15 228.6 94.15 215.17 94.15 215.17 80.72 215.17 67.29 215.17 53.85 201.73 53.85 201.73 67.29 201.73 80.72 201.73 94.15 201.73 107.59 201.73 121.03 201.73 134.46 201.73 147.89 201.73 161.32 215.17 161.32 215.17 147.89 215.17 134.46 215.17 121.03 215.17 107.59 228.6 107.59 242.03 107.59 255.47 107.59 255.47 121.03 255.47 134.46 255.47 147.89 255.47 161.32 268.91 161.32 268.91 147.89 268.91 134.46 268.91 121.03 268.91 107.59 268.91 94.15 268.91 80.72 268.91 67.29 268.91 53.85 255.47 53.85 255.47 67.29z"/></g><g id="change3_11"><path fill="#ffffff" d="M336.07 134.46L336.07 147.89 336.07 161.32 349.5 161.32 349.5 147.89 349.5 134.46 349.5 121.03 349.5 107.59 336.07 107.59 336.07 121.03 336.07 134.46z"/></g><g id="change3_12"><path fill="#ffffff" d="M242.03 53.85L255.47 53.85 255.47 40.42 242.03 40.42 228.6 40.42 215.17 40.42 215.17 53.85 228.6 53.85 242.03 53.85z"/></g><g id="change1_2"><path fill="#74a050" d="M255.47 147.89L255.47 134.46 255.47 121.03 255.47 107.59 242.03 107.59 242.03 121.03 242.03 134.46 242.03 147.89 242.03 161.32 255.47 161.32 255.47 147.89z"/></g><g id="change1_3"><path fill="#74a050" d="M201.73 40.42H215.17V53.84H201.73z"/></g><g id="change1_4"><path fill="#74a050" d="M255.47 80.72L255.47 67.29 255.47 53.85 242.03 53.85 242.03 67.29 242.03 80.72 242.03 94.15 255.47 94.15 255.47 80.72z"/></g><g id="change1_5"><path fill="#74a050" d="M201.73 147.89L201.73 134.46 201.73 121.03 201.73 107.59 201.73 94.15 201.73 80.72 201.73 67.29 201.73 53.85 188.31 53.85 188.31 67.29 188.31 80.72 188.31 94.15 188.31 107.59 188.31 121.03 188.31 134.46 188.31 147.89 188.31 161.32 201.73 161.32 201.73 147.89z"/></g><g id="change1_6"><path fill="#74a050" d="M349.49 40.42H362.93V53.84H349.49z"/></g><g id="change1_7"><path fill="#74a050" d="M336.07 80.72L336.07 67.29 336.07 53.85 322.64 53.85 322.64 67.29 322.64 80.72 322.64 94.15 336.07 94.15 336.07 80.72z"/></g><g id="change1_8"><path fill="#74a050" d="M282.33 147.89L282.33 134.46 282.33 121.03 282.33 107.59 282.33 94.15 282.33 80.72 282.33 67.29 282.33 53.85 282.33 40.42 268.91 40.42 268.91 53.85 268.91 67.29 268.91 80.72 268.91 94.15 268.91 107.59 268.91 121.03 268.91 134.46 268.91 147.89 268.91 161.32 282.33 161.32 282.33 147.89z"/></g><g id="change1_9"><path fill="#74a050" d="M389.82 147.89L389.82 134.46 389.82 121.03 389.82 107.59 389.82 94.15 389.82 80.72 389.82 67.29 389.82 53.85 376.37 53.85 376.37 67.29 376.37 80.72 376.37 94.15 376.37 107.59 376.37 121.03 376.37 134.46 376.37 147.89 376.37 161.32 389.82 161.32 389.82 147.89z"/></g><g id="change1_10"><path fill="#74a050" d="M148 147.89L148 134.46 148 121.03 148 107.59 148 94.15 148 80.72 148 67.29 148 53.85 134.56 53.85 134.56 67.29 134.56 80.72 134.56 94.15 134.56 107.59 134.56 121.03 134.56 134.46 134.56 147.89 134.56 161.32 148 161.32 148 147.89z"/></g><g id="change1_11"><path fill="#74a050" d="M336.07 147.89L336.07 134.46 336.07 121.03 336.07 107.59 322.64 107.59 322.64 121.03 322.64 134.46 322.64 147.89 322.64 161.32 336.07 161.32 336.07 147.89z"/></g><g id="change1_12"><path fill="#74a050" d="M40.51 94.15H53.949999999999996V107.59H40.51z"/></g><g id="change1_13"><path fill="#74a050" d="M403.24 174.76L389.82 174.76 376.37 174.76 362.94 174.76 349.5 174.76 336.07 174.76 322.64 174.76 309.19 174.76 295.77 174.76 282.33 174.76 268.91 174.76 255.47 174.76 242.03 174.76 228.6 174.76 215.17 174.76 201.73 174.76 188.31 174.76 174.86 174.76 161.43 174.76 148 174.76 134.56 174.76 121.13 174.76 107.69 174.76 94.26 174.76 80.83 174.76 67.39 174.76 53.96 174.76 41.1 174.76 41.1 187.73 53.44 187.73 53.96 187.73 67.14 187.73 67.39 187.73 80.83 187.73 80.85 187.73 94.26 187.73 94.55 187.73 106.88 187.73 107.69 187.73 108.25 187.73 120.58 187.73 121.13 187.73 134.29 187.73 134.56 187.73 147.99 187.73 148 187.73 161.43 187.73 161.69 187.73 174.86 187.73 175.39 187.73 187.73 187.73 188.31 187.73 189.1 187.73 201.43 187.73 201.73 187.73 215.13 187.73 215.17 187.73 228.6 187.73 228.83 187.73 242.03 187.73 242.54 187.73 254.87 187.73 255.47 187.73 256.24 187.73 268.57 187.73 268.91 187.73 282.27 187.73 282.33 187.73 295.77 187.73 295.98 187.73 309.19 187.73 309.68 187.73 322.01 187.73 322.64 187.73 323.38 187.73 335.71 187.73 336.07 187.73 349.42 187.73 349.5 187.73 362.94 187.73 363.12 187.73 376.37 187.73 376.82 187.73 389.15 187.73 389.82 187.73 390.53 187.73 402.86 187.73 403.24 187.73 416.56 187.73 416.67 187.73 430.11 187.73 430.11 174.76 416.67 174.76 403.24 174.76z"/></g><g id="change1_14"><path fill="#74a050" d="M430.11 174.76L430.26 174.76 430.26 174.02 443.54 174.02 443.54 161.32 430.11 161.32 430.11 174.76z"/></g><g id="change1_15"><path fill="#74a050" d="M443.97 41.1L443.97 40.42 443.54 40.42 443.54 53.85 443.54 67.29 443.54 80.72 443.54 94.15 443.54 107.59 443.54 121.03 443.54 134.46 443.54 147.89 443.54 161.32 456.3 161.32 456.3 147.99 456.3 147.89 456.3 134.46 456.3 134.29 456.3 121.03 456.3 120.58 456.3 108.25 456.3 107.59 456.3 106.88 456.3 94.55 456.3 94.15 456.3 80.85 456.3 80.72 456.3 67.29 456.3 67.14 456.3 53.85 456.3 53.44 456.3 41.1 443.97 41.1z"/></g><g id="change1_16"><path fill="#74a050" d="M27.09 147.89H40.51V161.32H27.09z"/></g><g id="change1_17"><path fill="#74a050" d="M94.26 134.46L94.26 121.03 94.26 107.59 80.83 107.59 80.83 121.03 80.83 134.46 80.83 147.89 94.26 147.89 94.26 134.46z"/></g><g id="change1_18"><path fill="#74a050" d="M107.69 40.42H121.12V53.84H107.69z"/></g><g id="change1_19"><path fill="#74a050" d="M40.51 40.42H53.949999999999996V53.84H40.51z"/></g><g id="change1_20"><path fill="#74a050" d="M40.52 67.29L40.52 53.85 27.09 53.85 27.09 67.29 27.09 80.72 27.09 94.15 40.52 94.15 40.52 80.72 40.52 67.29z"/></g><g id="change4_1"><path fill="#a8d67c" d="M13.71 53.44L13.71 53.85 27.09 53.85 27.09 41.1 13.71 41.1 13.71 53.44z"/></g><g id="change4_2"><path fill="#a8d67c" d="M430.26 27.41L430.26 26.99 430.11 26.99 430.11 40.42 443.54 40.42 443.54 27.41 430.26 27.41z"/></g><g id="change4_3"><path fill="#a8d67c" d="M416.67 13.71L416.56 13.71 403.24 13.71 402.86 13.71 390.53 13.71 389.82 13.71 389.15 13.71 376.82 13.71 376.37 13.71 363.12 13.71 362.94 13.71 349.5 13.71 349.42 13.71 336.07 13.71 335.71 13.71 323.38 13.71 322.64 13.71 322.01 13.71 309.68 13.71 309.19 13.71 295.98 13.71 295.77 13.71 282.33 13.71 282.27 13.71 268.91 13.71 268.57 13.71 256.24 13.71 255.47 13.71 254.87 13.71 242.54 13.71 242.03 13.71 228.83 13.71 228.6 13.71 215.17 13.71 215.13 13.71 201.73 13.71 201.43 13.71 189.1 13.71 188.31 13.71 187.73 13.71 175.39 13.71 174.86 13.71 161.69 13.71 161.43 13.71 148 13.71 147.99 13.71 134.56 13.71 134.29 13.71 121.13 13.71 120.58 13.71 108.25 13.71 107.69 13.71 106.88 13.71 94.55 13.71 94.26 13.71 80.85 13.71 80.83 13.71 67.39 13.71 67.14 13.71 53.96 13.71 53.44 13.71 41.1 13.71 41.1 26.99 41.1 27.41 40.52 27.41 27.41 27.41 27.41 40.42 40.52 40.42 53.96 40.42 53.96 26.99 67.39 26.99 80.83 26.99 94.26 26.99 107.69 26.99 121.13 26.99 134.56 26.99 148 26.99 161.43 26.99 174.86 26.99 188.31 26.99 201.73 26.99 215.17 26.99 228.6 26.99 242.03 26.99 255.47 26.99 268.91 26.99 282.33 26.99 295.77 26.99 309.19 26.99 322.64 26.99 336.07 26.99 349.5 26.99 362.94 26.99 376.37 26.99 389.82 26.99 403.24 26.99 416.67 26.99 430.11 26.99 430.11 13.71 416.67 13.71z"/></g><g id="change5_1"><path fill="#000000" d="M457.91,39.49V27.16H444.22V13.45H430.51V-.25h-391v13.7H27.16V27.16H13.46V39.49H-.25V161.94H13.46v13.7h13.7V188H39.49v13.7h391V188h13.71V175.64h13.69v-13.7h12.34V39.49ZM456,53.44v108H443.72v12.33H430v13.71H41.35V173.77H27.66V161.44H14V41.35H27.66V27.66H41.35V14H430V27.66h13.71V41.35H456Z"/></g></svg>